<svg xmlns="http://www.w3.org/2000/svg" viewBox="0 0 512 512" width="512" height="512">
  <!-- Background -->
  <rect width="512" height="512" rx="112" fill="#0a0a0a"/>

  <!-- Receipt body -->
  <rect x="148" y="88" width="216" height="290" rx="10" fill="#1e1e1e"/>

  <!-- Zigzag bottom edge of receipt -->
  <polygon points="148,378 166,356 184,378 202,356 220,378 238,356 256,378 274,356 292,378 310,356 328,378 346,356 364,378 364,378 148,378" fill="#141414"/>

  <!-- Receipt lines (text rows) -->
  <rect x="172" y="118" width="100" height="10" rx="5" fill="#b5f23a" opacity="0.9"/>
  <rect x="172" y="118" width="100" height="10" rx="5" fill="#b5f23a"/>

  <rect x="172" y="150" width="136" height="8" rx="4" fill="#2e2e2e"/>
  <rect x="172" y="166" width="96" height="8" rx="4" fill="#2e2e2e"/>

  <!-- Divider -->
  <rect x="172" y="192" width="168" height="1.5" fill="#282828"/>

  <rect x="172" y="208" width="80" height="8" rx="4" fill="#2e2e2e"/>
  <rect x="284" y="208" width="56" height="8" rx="4" fill="#2e2e2e"/>

  <rect x="172" y="226" width="68" height="8" rx="4" fill="#2e2e2e"/>
  <rect x="296" y="226" width="44" height="8" rx="4" fill="#2e2e2e"/>

  <rect x="172" y="244" width="76" height="8" rx="4" fill="#2e2e2e"/>
  <rect x="288" y="244" width="52" height="8" rx="4" fill="#2e2e2e"/>

  <!-- Divider -->
  <rect x="172" y="270" width="168" height="1.5" fill="#383838"/>

  <!-- Total row highlighted -->
  <rect x="172" y="286" width="48" height="10" rx="5" fill="#404040"/>
  <rect x="284" y="284" width="56" height="14" rx="7" fill="#b5f23a"/>

  <!-- Checkmark circle at bottom -->
  <circle cx="256" cy="422" r="30" fill="#b5f23a"/>
  <polyline points="242,422 252,434 272,410" fill="none" stroke="#0a0a0a" stroke-width="5" stroke-linecap="round" stroke-linejoin="round"/>
</svg>
